<svg xmlns="http://www.w3.org/2000/svg" viewBox="0 0 1200 630" role="img" aria-labelledby="title desc">
  <title id="title">Heap Exploitation Part 2</title>
  <desc id="desc">Minimal technical cover for Heap Exploitation Part 2.</desc>
  <rect width="1200" height="630" rx="30" fill="#0f1115"/>
  <rect x="60" y="70" width="1080" height="490" rx="22" fill="#141821" stroke="#6f4a23" stroke-width="2"/>
  <rect x="96" y="110" width="12" height="12" rx="6" fill="#7ee787"/>
  <rect x="118" y="110" width="12" height="12" rx="6" fill="#e3b341"/>
  <rect x="140" y="110" width="12" height="12" rx="6" fill="#ff7b72"/>
  <text x="96" y="165" fill="#7ee787" font-size="22" font-family="Cascadia Code, Consolas, monospace">$ analyze --target "heapexp2" --mode notes</text>
  <text x="96" y="230" fill="#f0f6fc" font-size="54" font-family="Segoe UI, Arial, sans-serif">Heap Exploitation Part 2</text>
  <text x="96" y="285" fill="#8b949e" font-size="26" font-family="Segoe UI, Arial, sans-serif">Memory Allocation and Deallocation Process</text>
  <rect x="96" y="340" width="420" height="18" rx="9" fill="#6f4a23" opacity="0.9"/>
  <rect x="96" y="376" width="520" height="12" rx="6" fill="#30363d"/>
  <rect x="96" y="402" width="380" height="12" rx="6" fill="#30363d"/>
  <rect x="96" y="428" width="460" height="12" rx="6" fill="#30363d"/>
  <rect x="730" y="168" width="300" height="220" rx="18" fill="#0d1117" stroke="#30363d"/>
  <text x="760" y="220" fill="#7ee787" font-size="20" font-family="Cascadia Code, Consolas, monospace">0x4012c0   push rbp</text>
  <text x="760" y="255" fill="#f0f6fc" font-size="20" font-family="Cascadia Code, Consolas, monospace">0x4012c1   mov rbp, rsp</text>
  <text x="760" y="290" fill="#f0f6fc" font-size="20" font-family="Cascadia Code, Consolas, monospace">0x4012c4   cmp [heap], 0x91</text>
  <text x="760" y="325" fill="#79c0ff" font-size="20" font-family="Cascadia Code, Consolas, monospace">0x4012cb   jne exploit_path</text>
  <text x="760" y="360" fill="#8b949e" font-size="18" font-family="Cascadia Code, Consolas, monospace">focus: heap-exploitation / reversing</text>
</svg>
